<svg id="Capa_1" data-name="Capa 1" xmlns="http://www.w3.org/2000/svg" viewBox="0 0 1080 1080"><defs><style>.cls-1{fill:#ff5f00;}.cls-2{fill:#fff;}</style></defs><rect class="cls-1" width="1080" height="1080" rx="61.94"/><path class="cls-2" d="M95.26,380v34.9h56.27v32.43H95.26v37.84H158.9v33.66H53.24V346.3H158.9V380Z"/><path class="cls-2" d="M308.17,395.81q14.37,15.62,14.37,42.88v80.1H280.77V444.34q0-13.75-7.12-21.37t-19.17-7.62q-12,0-19.16,7.62t-7.13,21.37v74.45h-42V381.68h42v18.19a44.41,44.41,0,0,1,17.2-14.38,54.73,54.73,0,0,1,24.33-5.28Q293.79,380.21,308.17,395.81Z"/><path class="cls-2" d="M428.2,483.17v35.62H406.83q-22.86,0-35.63-11.17t-12.78-36.49V416.58H341.71v-34.9h16.71V348.27h42v33.41H428v34.9H400.44v55q0,6.13,2.95,8.84t9.82,2.71Z"/><path class="cls-2" d="M512,386.72a47.52,47.52,0,0,1,24.57-6.51v44.48H525q-15.72,0-23.59,6.75t-7.86,23.71v63.64h-42V381.68h42v22.86A55.37,55.37,0,0,1,512,386.72Z"/><path class="cls-2" d="M556.34,412.89q8-16,21.75-24.57a56.78,56.78,0,0,1,30.71-8.6q14.49,0,25.43,5.9a43.4,43.4,0,0,1,16.83,15.48V381.68h42V518.79h-42V499.38A45.36,45.36,0,0,1,634,514.86q-10.93,5.89-25.44,5.9A55.75,55.75,0,0,1,578.09,512q-13.77-8.71-21.75-24.82t-8-37.23Q548.35,428.87,556.34,412.89Zm86,12.53a29.53,29.53,0,0,0-42.51-.12q-8.72,9-8.72,24.69t8.72,24.94a29.25,29.25,0,0,0,42.51.13q8.71-9.09,8.72-24.82T642.34,425.42Z"/><path class="cls-2" d="M723.18,412.89q8-16,21.74-24.57a56.84,56.84,0,0,1,30.72-8.6,53.89,53.89,0,0,1,24.69,5.65,45.05,45.05,0,0,1,17.57,15.24V337h42V518.79h-42V499.14a42.78,42.78,0,0,1-16.83,15.72q-10.94,5.89-25.43,5.9A56.26,56.26,0,0,1,744.92,512q-13.75-8.71-21.74-24.82t-8-37.23Q715.19,428.87,723.18,412.89Zm86,12.53a29.53,29.53,0,0,0-42.51-.12q-8.73,9-8.72,24.69t8.72,24.94a29.25,29.25,0,0,0,42.51.13q8.72-9.09,8.72-24.82T809.18,425.42Z"/><path class="cls-2" d="M890,412.89q8-16,21.74-24.57a56.79,56.79,0,0,1,30.72-8.6q14.49,0,25.43,5.9a43.4,43.4,0,0,1,16.83,15.48V381.68h42V518.79h-42V499.38a45.39,45.39,0,0,1-17.08,15.48q-10.93,5.89-25.43,5.9A55.79,55.79,0,0,1,911.76,512Q898,503.33,890,487.22T882,450Q882,428.87,890,412.89Zm86,12.53a29.53,29.53,0,0,0-42.51-.12q-8.73,9-8.72,24.69t8.72,24.94a29.25,29.25,0,0,0,42.51.13q8.72-9.09,8.72-24.82T976,425.42Z"/><path class="cls-2" d="M248.59,568.58V741.07h-42V637.62L168,741.07H134.08L95.26,637.38V741.07h-42V568.58h49.64L151.28,688,199.2,568.58Z"/><path class="cls-2" d="M278.44,635.17q8-16,21.75-24.58A56.78,56.78,0,0,1,330.9,602q14.5,0,25.43,5.9a43.5,43.5,0,0,1,16.84,15.48V604h42V741.07h-42V721.66a45.39,45.39,0,0,1-17.08,15.48q-10.93,5.9-25.43,5.9a55.71,55.71,0,0,1-30.47-8.73q-13.77-8.71-21.75-24.82t-8-37.22Q270.46,651.14,278.44,635.17Zm86,12.53a29.52,29.52,0,0,0-42.51-.13q-8.71,9-8.72,24.7t8.72,24.94a29.26,29.26,0,0,0,42.51.12q8.73-9.09,8.73-24.82T364.44,647.7Z"/><path class="cls-2" d="M469.48,736.89q-14-6.14-22.11-16.83a44.21,44.21,0,0,1-9.09-24H479.8a16,16,0,0,0,6.64,11.55,23.46,23.46,0,0,0,14.5,4.42q7.86,0,12.16-3.07a9.4,9.4,0,0,0,4.3-8q0-5.89-6.14-8.73T491.35,686a186,186,0,0,1-24.57-7.25,42.44,42.44,0,0,1-16.95-12q-7.14-8.24-7.13-22.24a37.79,37.79,0,0,1,6.51-21.5q6.51-9.71,19.17-15.35t30.1-5.66q25.8,0,40.66,12.78t17.08,33.91H517.4a16.75,16.75,0,0,0-6.27-11.3q-5.28-4.18-13.88-4.18-7.37,0-11.3,2.83a9,9,0,0,0-3.93,7.73q0,5.91,6.26,8.85t19.54,5.9a213.63,213.63,0,0,1,24.81,7.74,42.89,42.89,0,0,1,16.84,12.28q7.24,8.49,7.49,22.73a36,36,0,0,1-6.76,21.5q-6.76,9.47-19.41,14.87T501.43,743Q483.49,743,469.48,736.89Z"/><path class="cls-2" d="M659.18,705.44v35.63H637.8q-22.84,0-35.63-11.18T589.39,693.4V638.85h-16.7V604h16.7V570.54h42V604h27.52v34.89H631.41v55q0,6.15,3,8.85t9.83,2.7Z"/><path class="cls-2" d="M811,682.59H715.94q1,12.78,8.23,19.53A25.12,25.12,0,0,0,742,708.88q15.72,0,21.87-13.27h44.72a61.34,61.34,0,0,1-12.41,24.33,62,62,0,0,1-22.48,16.95A72.16,72.16,0,0,1,743.46,743q-20.16,0-35.88-8.61A61.17,61.17,0,0,1,683,709.86q-8.85-16-8.85-37.35t8.73-37.34a60.36,60.36,0,0,1,24.45-24.58q15.72-8.6,36.12-8.6,19.89,0,35.38,8.36A59.94,59.94,0,0,1,803,634.18q8.72,15.48,8.72,36.12A107.64,107.64,0,0,1,811,682.59Zm-42.27-23.34q0-10.82-7.37-17.21T743,635.66q-10.56,0-17.81,6.14t-9,17.45Z"/><path class="cls-2" d="M894.32,609a47.55,47.55,0,0,1,24.58-6.51V647H907.35q-15.74,0-23.59,6.76t-7.87,23.71v63.64h-42V604h42v22.85A55.53,55.53,0,0,1,894.32,609Z"/></svg>